<svg width="1310" height="159" fill="none" xmlns="http://www.w3.org/2000/svg"><path fill-rule="evenodd" clip-rule="evenodd" d="M37.4 92.1a7.6 7.6 0 00.203.037c.428.074.837.145 1.096.663-.118.324-.245.649-.372.976-.305.782-.616 1.578-.828 2.424-.6 2.4.3 4 2.7 4.5 1 .2 2 .3 3 .2 1.6-.2 2 .6 2.3 2 .5 3 .1 5.8-1.1 8.6a44.7 44.7 0 01-.702 1.432c-.395.783-.786 1.556-1.098 2.368-3.6 8.5-4.5 16.8 1.3 24.8 1.4 2 2.3 4.3 2.5 6.8.3 3.2.5 6.5-.5 9.6-.3 1-.4 1.9.8 2.3 1.1.3 1.7-.4 2.1-1.3.3-.8.6-1.7.7-2.6.7-6.4-.1-12.5-4-17.9-2.1-2.9-2.9-6.2-2.8-9.8.2-4.3 1.4-8.4 3.4-12.2 2.1-4.1 3.3-8.3 2.3-12.9-.3-1.3 0-1.9 1.2-2.6 2.3-1.3 2.5-3.1.8-5.3-.263-.339-.598-.635-.944-.942-.574-.509-1.182-1.047-1.556-1.858 7.7-1.9 14.3-5.7 19.6-11.5 9.8-10.7 13.8-23.4 12.8-37.7-.7-12.3-5.3-23.2-14.5-31.8-9-8.4-19.7-12-32.1-9.7-9 1.7-16.3 6.4-22.2 13.3-12.9 15.2-15.3 38.5-5.4 56.4 6.8 12.4 16.9 20.2 31.3 21.7zm7.899 4.7c-.329.027-.695.122-1.068.22-.989.255-2.024.524-2.532-.42-.567-.946.386-2.25 1.168-3.319l.132-.181c.186.12.372.237.557.354 1.208.765 2.376 1.505 3.243 2.546-.173.864-.793.832-1.28.808l-.036-.002a5.543 5.543 0 00-.184-.006zm-41.5-50.3C4 34.1 7.7 23.1 16.5 14.2 30.8-.2 52.3.4 65.7 15.7c8.5 9.7 11.8 21.3 10.9 34.1-.8 10.9-4.7 20.5-12.5 28.3-14.4 14.5-36 13.7-49.4-1.8C7.3 67.7 4 57.6 3.8 46.5zm60.7 23.2c.5.3.9.3 1.4 0 .6-.3.9-.8 1.2-1.3 2.3-5 4.2-10.1 4.3-15.6 0-1.9-.2-3.8-.9-5.7-.3-.7-.9-1.1-1.7-.9-.8.2-1.1.8-1.1 1.6l.3 1.8c.4 2.2.4 4.4 0 6.6-.7 3.7-2 7.2-3.5 10.6a5.19 5.19 0 01-.318.713c-.163.321-.324.637-.382.987-.1.4.2.9.7 1.2zm-47.5-38.8c-.3 1-.7 1.8-1.8 1.5-1.1-.3-1.2-1.3-1.1-2.3 1.2-3.8 2.6-7.7 5.3-10.9.8-.9 1.6-1.8 2.5-2.6.7-.7 1.6-1 2.4-.2.8.8.3 1.6-.4 2.3-3.7 3.3-5.6 7.6-6.9 12.2zm-1.2 6.1c-.1-.8-.5-1.4-1.4-1.5-.9-.1-1.6.5-1.7 1.4-.1.9.5 1.5 1.4 1.6.9.1 1.5-.4 1.7-1.5zm48.4 36.2c-.3 1-.9 1.4-1.8 1.2-.9-.2-1.5-.7-1.2-1.7.2-.8.9-1.4 1.8-1.2.9.2 1.3.9 1.2 1.7z" fill="#fff"/><path d="M1287.02 62.383c-4.9 2.4-9.4 10.2-9 15.6.2 3.1 2.5 4.2 5.1 2.4 2.1-1.4 3.4-3.4 4.6-5.6 1.5-2.7 2.5-5.5 3.4-8.4.8-2.4 2.1-2.8 4.1-1.2 1.5 1.2 1.8 2.9 2 4.6.1.6-.3.8-.8 1.1-5.4 3-8.2 10-6.5 15.8.9 3.1 3.1 3.7 5.4 1.4 1.3-1.3 2-3 2.7-4.7 1-2.6 1.5-5.4 2.1-7.9.6-.2.8 0 1 .3.5.8 1.1 1.5 1.5 2.3 2.4 5.1 3.8 10.5 3.3 16.2-.1.8-.2 1.6-.2 2.4 0 .8.5 1.4 1.3 1.4.8.1 1.3-.5 1.5-1.2.2-.7.3-1.4.4-2.1.7-6.7-.9-12.9-3.9-18.7-.7-1.4-1.7-2.8-3-3.8-1.2-.8-1.6-1.8-1.8-3.2-.5-4.1-2.4-7.1-6.9-7.7-1-.2-1.2-.6-1.4-1.6-.9-5.6-6.1-9.4-11.9-8.7-1 .1-1.8.5-1.7 1.7 0 1 .7 1.3 1.6 1.4 1.8 0 3.5.3 5.1.9 1.7.6 3 1.6 3.6 3.4.8 2.1.4 2.9-1.6 3.9zm-5.8 15.4c.7-4.9 1.9-9.5 6.7-12.2-1.2 4.6-2.5 9.2-6.7 12.2zm12.1 8.1c-2-3.6.1-9.8 3.9-11.9-.7 4.3-1.5 8.3-3.9 11.9z" fill="#fff"/></svg>