<svg width="50" height="98" fill="none" xmlns="http://www.w3.org/2000/svg"><path fill-rule="evenodd" clip-rule="evenodd" d="M23.056 56.8l.126.024c.264.045.516.089.676.408-.073.2-.151.4-.23.602-.188.482-.38.973-.51 1.494-.37 1.48.185 2.466 1.664 2.774.617.124 1.233.185 1.85.124.986-.124 1.233.37 1.418 1.233.308 1.85.061 3.575-.678 5.301-.14.301-.287.593-.433.883-.244.483-.485.96-.677 1.46-2.22 5.24-2.774 10.357.801 15.29.863 1.232 1.418 2.65 1.542 4.191.184 1.973.308 4.007-.309 5.918-.185.617-.246 1.172.493 1.418.679.185 1.048-.246 1.295-.801.185-.493.37-1.048.432-1.603.431-3.945-.062-7.706-2.466-11.035-1.295-1.788-1.788-3.822-1.727-6.042.124-2.65.864-5.178 2.096-7.52 1.295-2.528 2.035-5.118 1.418-7.953-.184-.802 0-1.172.74-1.603 1.418-.802 1.541-1.911.493-3.268-.162-.209-.368-.391-.582-.58-.354-.314-.728-.646-.959-1.146 4.747-1.171 8.816-3.514 12.083-7.09 6.042-6.596 8.508-14.425 7.892-23.241-.432-7.583-3.268-14.303-8.94-19.604C35.016 1.255 28.42-.964 20.775.454 15.227 1.502 10.726 4.399 7.09 8.653c-7.953 9.37-9.432 23.735-3.329 34.77C7.952 51.067 14.179 55.876 23.056 56.8zm4.87 2.898c-.202.017-.428.076-.658.135-.61.158-1.248.324-1.561-.258-.35-.583.238-1.387.72-2.046l.081-.112.344.218c.744.472 1.464.928 2 1.57-.107.532-.49.513-.79.498a2.22 2.22 0 00-.136-.005zM2.342 28.688c.123-7.644 2.404-14.425 7.83-19.912C18.986-.1 32.242.27 40.502 9.701c5.24 5.98 7.275 13.131 6.72 21.022-.493 6.72-2.897 12.638-7.706 17.447-8.877 8.939-22.193 8.446-30.454-1.11-4.562-5.302-6.597-11.528-6.72-18.37zm37.419 14.303c.308.185.555.185.863 0 .37-.185.555-.493.74-.801 1.418-3.083 2.589-6.227 2.65-9.617 0-1.172-.123-2.343-.554-3.514-.185-.432-.555-.678-1.048-.555s-.678.493-.678.986l.185 1.11a11.282 11.282 0 010 4.069c-.432 2.28-1.233 4.438-2.158 6.534a3.287 3.287 0 01-.196.44c-.1.198-.2.393-.236.608-.061.247.124.555.432.74zm-29.284-23.92c-.185.617-.432 1.11-1.11.925-.678-.185-.74-.801-.678-1.418.74-2.342 1.603-4.747 3.267-6.72.494-.554.987-1.109 1.542-1.602.431-.432.986-.617 1.48-.123.492.493.184.986-.247 1.417-2.281 2.035-3.453 4.686-4.254 7.522zm-.735 3.761c-.061-.493-.308-.863-.863-.925-.555-.061-.986.309-1.048.863-.061.555.308.925.863.987.555.061.925-.247 1.048-.925zM39.578 45.15c-.185.617-.555.863-1.11.74-.554-.123-.924-.432-.74-1.048.124-.494.556-.863 1.11-.74.555.123.802.555.74 1.048z" fill="#fff"/></svg>