<svg width="21" height="32" fill="none" xmlns="http://www.w3.org/2000/svg"><path d="M6.096 7.735c-3.31 1.63-6.35 6.93-6.08 10.6.136 2.106 1.69 2.854 3.446 1.63 1.418-.95 2.297-2.31 3.107-3.805 1.013-1.834 1.689-3.737 2.297-5.707.54-1.631 1.418-1.903 2.77-.816 1.013.816 1.215 1.97 1.35 3.126.068.408-.202.543-.54.747-3.648 2.039-5.54 6.795-4.39 10.736.607 2.107 2.093 2.515 3.647.952.878-.884 1.351-2.039 1.824-3.194.675-1.767 1.013-3.67 1.418-5.368.406-.136.54 0 .676.204.338.544.743 1.02 1.013 1.563 1.621 3.465 2.567 7.134 2.23 11.008-.068.543-.136 1.087-.136 1.63 0 .544.338.952.878.952.54.067.878-.34 1.014-.816.135-.476.202-.951.27-1.427.473-4.552-.608-8.765-2.635-12.706-.473-.952-1.148-1.903-2.026-2.582-.81-.544-1.081-1.223-1.216-2.175-.338-2.786-1.621-4.824-4.661-5.232-.676-.136-.81-.408-.946-1.087C8.798 2.163 5.286-.419 1.368.056.692.124.152.396.219 1.212c0 .679.473.883 1.081.95a9.68 9.68 0 013.445.612c1.149.408 2.027 1.088 2.432 2.31.54 1.428.27 1.971-1.08 2.65zM2.178 18.199c.473-3.33 1.284-6.455 4.526-8.29-.81 3.126-1.689 6.251-4.526 8.29zm8.174 5.504c-1.351-2.446.067-6.66 2.634-8.086-.472 2.922-1.013 5.64-2.634 8.086z" fill="#fff"/></svg>