<svg width="46" height="41" fill="none" xmlns="http://www.w3.org/2000/svg"><path d="M42.534 4.52c1.118.505 1.988-.126 2.36-1.135.373-1.009.125-2.018-.993-2.523-.87-.378-1.615-.63-2.485-.756-2.733-.379-5.217.252-7.453 2.018-1.367 1.009-2.485 1.766-4.348 1.135-2.112-.63-4.224.252-6.087 1.388-2.236 1.387-3.727 3.405-5.218 5.423-.994 1.388-4.845 4.92-6.211 5.929-1.242.883-2.485 1.766-3.479 2.901C4.148 23.946 1.54 30 .174 36.56c-.248 1.008-.248 2.017.124 3.026.373.883.994 1.514 1.988 1.388.87 0 1.366-.505 1.49-1.388.125-.63 0-1.26.125-1.892 1.118-6.307 3.602-11.983 7.95-16.524.497-.504.994-1.513 2.236-.883-.62 2.776-.993 5.55-.497 8.326.497 2.648 1.74 4.162 3.976 4.54 2.36.379 4.1-.756 5.466-2.522.745-.883 1.118-2.018 1.242-3.154.621-4.162-.124-7.82-3.106-10.974-.62-.63-1.615-1.009-.994-2.144 1.864-3.28 3.727-6.685 8.82-7.316-1.366 3.406-2.732 6.055-3.105 9.208-.249 2.775-.124 5.298 1.118 7.82.87 1.64 2.112 2.902 4.1 2.902 1.987 0 3.23-1.136 4.099-2.901 1.118-2.145 1.615-4.541 1.615-7.064-.124-2.901-.497-5.928-1.74-8.577-.745-1.514-.372-2.397.87-3.154 2.236-1.387 4.348-1.766 6.584-.757zM20.67 26.973c-.248 1.135-.87 2.396-2.236 2.27-1.242-.126-1.242-1.513-1.242-2.396-.124-2.523.124-5.046 1.366-7.82 2.237 2.648 2.733 5.17 2.112 7.946zm10.684-3.532c-2.485-4.667-1.615-8.577.497-12.361 1.49 4.036 2.236 7.946-.497 12.36z" fill="#5B1A0D"/></svg>