<svg width="18" height="18" fill="none" xmlns="http://www.w3.org/2000/svg"><path fill-rule="evenodd" clip-rule="evenodd" d="M2.803 1.405a1.01 1.01 0 00-1.42 0l-.089.089a.99.99 0 000 1.408L7.445 9l-6.15 6.1a.99.99 0 000 1.408l.088.088a1.01 1.01 0 001.42 0l6.151-6.098 6.013 5.962a1.01 1.01 0 001.42 0l.09-.089a.99.99 0 000-1.408L10.463 9l6.014-5.962a.99.99 0 000-1.408l-.089-.088a1.01 1.01 0 00-1.42 0L8.954 7.504l-6.15-6.099z" fill="#5B1A0D"/><path d="M1.383 1.405l.176.178-.176-.178zm1.42 0l.177-.177-.177.177zm-1.509.089l.176.177-.176-.177zm0 1.408l-.176.177.176-.177zM7.445 9l.176.178.18-.178-.18-.177L7.445 9zm-6.15 6.1l.175.177-.176-.177zm0 1.408l-.177.177.176-.177zm.088.088l.176-.178-.176.178zm1.42 0l.176.177-.176-.177zm6.151-6.098l.176-.178-.176-.175-.176.175.176.177zm6.013 5.962l-.176.177.176-.177zm1.42 0l.177.177-.176-.177zm.09-.089l-.176-.177.176.177zm0-1.408l.176-.177-.176.177zM10.463 9l-.176-.178-.179.178.18.177.175-.177zm6.014-5.962l.176.177-.176-.177zm0-1.408l-.176.177.176-.177zm-.089-.088l.176-.178-.176.178zm-1.42 0l.176.177-.176-.177zM8.954 7.504l-.176.177.176.175.176-.175-.176-.177zM1.56 1.583a.76.76 0 011.068 0l.353-.355a1.26 1.26 0 00-1.773 0l.352.355zm-.089.088l.09-.088-.353-.355-.089.088.352.355zm0 1.053a.74.74 0 010-1.053l-.352-.355a1.24 1.24 0 000 1.763l.352-.355zm6.151 6.099l-6.15-6.099-.353.355L7.27 9.178l.352-.355zm-6.15 6.453l6.15-6.098-.352-.355-6.15 6.098.351.355zm0 1.053a.74.74 0 010-1.053l-.353-.355a1.24 1.24 0 000 1.763l.352-.355zm.088.088l-.089-.088-.352.355.09.088.351-.355zm1.068 0a.76.76 0 01-1.068 0l-.352.355a1.26 1.26 0 001.772 0l-.352-.355zm6.15-6.098l-6.15 6.098.352.355 6.151-6.098-.352-.355zm6.366 5.962L9.13 10.32l-.352.355 6.013 5.962.352-.355zm1.069 0a.76.76 0 01-1.069 0l-.352.355a1.26 1.26 0 001.773 0l-.352-.355zm.089-.088l-.09.088.353.355.089-.088-.352-.355zm0-1.053a.74.74 0 010 1.053l.352.355a1.24 1.24 0 000-1.763l-.352.355zm-6.014-5.963l6.014 5.963.352-.355-6.014-5.963-.352.355zm6.014-6.317l-6.014 5.962.352.355 6.014-5.962-.352-.355zm0-1.053a.74.74 0 010 1.053l.352.355a1.24 1.24 0 000-1.763l-.352.355zm-.09-.088l.09.088.352-.355-.089-.088-.352.355zm-1.067 0a.76.76 0 011.068 0l.352-.355a1.26 1.26 0 00-1.772 0l.352.355zM9.13 7.681l6.014-5.962-.352-.355-6.014 5.962.352.355zM2.627 1.583L8.778 7.68l.352-.355-6.15-6.098-.353.355z" fill="#5B1A0D"/></svg>