<svg width="1310" height="159" viewBox="0 0 1310 159" fill="none" xmlns="http://www.w3.org/2000/svg">
<path fill-rule="evenodd" clip-rule="evenodd" d="M37.3991 92.1C37.4671 92.1136 37.5352 92.1254 37.6027 92.137C38.0315 92.2111 38.4399 92.2817 38.6991 92.8C38.5811 93.1244 38.4544 93.4489 38.3267 93.7759C38.0215 94.5576 37.7106 95.3539 37.4991 96.2C36.8991 98.6 37.799 100.2 40.1991 100.7C41.1991 100.9 42.1991 101 43.1991 100.9C44.799 100.7 45.1991 101.5 45.4991 102.9C45.9991 105.9 45.5991 108.7 44.3991 111.5C44.1739 111.988 43.9346 112.462 43.6971 112.932L43.6971 112.932C43.3018 113.715 42.9114 114.488 42.599 115.3C38.9991 123.8 38.0991 132.1 43.8991 140.1C45.2991 142.1 46.1991 144.4 46.3991 146.9C46.6991 150.1 46.8991 153.4 45.8991 156.5C45.5991 157.5 45.4991 158.4 46.6991 158.8C47.799 159.1 48.399 158.4 48.799 157.5C49.099 156.7 49.3991 155.8 49.4991 154.9C50.1991 148.5 49.3991 142.4 45.4991 137C43.3991 134.1 42.5991 130.8 42.6991 127.2C42.8991 122.9 44.099 118.8 46.099 115C48.199 110.9 49.3991 106.7 48.3991 102.1C48.0991 100.8 48.399 100.2 49.599 99.5C51.899 98.2 52.0991 96.4 50.3991 94.2C50.1356 93.8613 49.8014 93.5651 49.4551 93.2582C48.8809 92.7493 48.2733 92.2108 47.8991 91.4C55.5991 89.5 62.199 85.7 67.499 79.9C77.299 69.2 81.299 56.5 80.299 42.2C79.5991 29.9 74.999 19 65.799 10.4C56.799 1.99998 46.0991 -1.60002 33.6991 0.699982C24.699 2.39998 17.399 7.09998 11.499 14C-1.40095 29.2 -3.80095 52.5 6.09905 70.4C12.899 82.8 22.9991 90.6 37.3991 92.1ZM45.299 96.8C44.9702 96.8274 44.6038 96.9224 44.2307 97.0191C43.2424 97.2753 42.2072 97.5437 41.6991 96.6C41.1316 95.6542 42.0848 94.3505 42.8667 93.2813C42.9115 93.2201 42.9557 93.1596 42.9991 93.1C43.1849 93.2194 43.3707 93.3372 43.5556 93.4543C44.7637 94.2194 45.9318 94.9593 46.799 96C46.6263 96.8635 46.0062 96.8322 45.5182 96.8076L45.4825 96.8058C45.4564 96.8045 45.4308 96.8033 45.4057 96.8024C45.3689 96.8009 45.3333 96.8 45.299 96.8ZM3.79905 46.5C3.99905 34.1 7.69905 23.1 16.499 14.2C30.799 -0.200018 52.299 0.399982 65.699 15.7C74.199 25.4 77.499 37 76.599 49.8C75.799 60.7 71.899 70.3 64.099 78.1C49.699 92.6 28.099 91.8 14.699 76.3C7.29905 67.7 3.99905 57.6 3.79905 46.5ZM64.4989 69.7C64.9989 70 65.3989 70 65.8989 69.7C66.4989 69.4 66.7989 68.9 67.0989 68.4C69.3989 63.4 71.299 58.3 71.3989 52.8C71.3989 50.9 71.1989 49 70.4989 47.1C70.1989 46.4 69.599 46 68.799 46.2C67.9989 46.4 67.6989 47 67.6989 47.8L67.9989 49.6C68.3989 51.8 68.3989 54 67.9989 56.2C67.2989 59.9 65.9989 63.4 64.4989 66.8C64.4156 67.0501 64.2975 67.2828 64.1808 67.5126L64.1808 67.5127C64.0176 67.8342 63.8573 68.1501 63.7989 68.5C63.6989 68.9 63.9989 69.4 64.4989 69.7ZM16.999 30.9C16.699 31.9 16.299 32.7 15.199 32.4C14.099 32.1 13.999 31.1 14.099 30.1C15.299 26.3 16.699 22.4 19.399 19.2L19.399 19.1999C20.199 18.2999 20.999 17.4 21.899 16.6C22.599 15.9 23.499 15.6 24.299 16.4C25.099 17.2 24.599 18 23.899 18.7C20.199 22 18.299 26.3 16.999 30.9ZM15.7991 37C15.6991 36.2 15.2991 35.6 14.3991 35.5C13.4991 35.4 12.7991 36 12.6991 36.9C12.5991 37.8 13.1991 38.4 14.0991 38.5C14.9991 38.6 15.5991 38.1 15.7991 37ZM64.1991 73.2C63.8991 74.2 63.2991 74.6 62.3991 74.4C61.4991 74.2 60.8991 73.7 61.1991 72.7C61.3991 71.9 62.0991 71.3 62.9991 71.5C63.8991 71.7 64.2991 72.4 64.1991 73.2Z" fill="white"/>
<path d="M1287.02 62.383C1282.12 64.783 1277.62 72.583 1278.02 77.983C1278.22 81.083 1280.52 82.183 1283.12 80.383C1285.22 78.983 1286.52 76.983 1287.72 74.783C1289.22 72.083 1290.22 69.283 1291.12 66.383C1291.92 63.983 1293.22 63.583 1295.22 65.183C1296.72 66.383 1297.02 68.083 1297.22 69.783C1297.32 70.383 1296.92 70.583 1296.42 70.883C1291.02 73.883 1288.22 80.883 1289.92 86.683C1290.82 89.783 1293.02 90.383 1295.32 88.083C1296.62 86.783 1297.32 85.083 1298.02 83.383C1299.02 80.783 1299.52 77.983 1300.12 75.483C1300.72 75.283 1300.92 75.483 1301.12 75.783C1301.62 76.583 1302.22 77.283 1302.62 78.083C1305.02 83.183 1306.42 88.583 1305.92 94.283C1305.82 95.083 1305.72 95.883 1305.72 96.683C1305.72 97.483 1306.22 98.083 1307.02 98.083C1307.82 98.183 1308.32 97.583 1308.52 96.883C1308.72 96.183 1308.82 95.483 1308.92 94.783C1309.62 88.083 1308.02 81.883 1305.02 76.083C1304.32 74.683 1303.32 73.283 1302.02 72.283C1300.82 71.483 1300.42 70.483 1300.22 69.083C1299.72 64.983 1297.82 61.983 1293.32 61.383C1292.32 61.183 1292.12 60.783 1291.92 59.783C1291.02 54.183 1285.82 50.383 1280.02 51.083C1279.02 51.183 1278.22 51.583 1278.32 52.783C1278.32 53.783 1279.02 54.083 1279.92 54.183C1281.72 54.183 1283.42 54.483 1285.02 55.083C1286.72 55.683 1288.02 56.683 1288.62 58.483C1289.42 60.583 1289.02 61.383 1287.02 62.383ZM1281.22 77.783C1281.92 72.883 1283.12 68.283 1287.92 65.583C1286.72 70.183 1285.42 74.783 1281.22 77.783ZM1293.32 85.883C1291.32 82.283 1293.42 76.083 1297.22 73.983C1296.52 78.283 1295.72 82.283 1293.32 85.883Z" fill="white"/>
</svg>
