<svg width="21" height="32" viewBox="0 0 21 32" fill="none" xmlns="http://www.w3.org/2000/svg">
<path d="M6.09629 7.73466C2.78632 9.36544 -0.253446 14.6655 0.0167557 18.3348C0.151856 20.4412 1.70552 21.1886 3.46182 19.9655C4.88038 19.0142 5.75854 17.6553 6.56914 16.1604C7.5824 14.3257 8.2579 12.4232 8.86586 10.4526C9.40626 8.82185 10.2844 8.55005 11.6354 9.63724C12.6487 10.4526 12.8513 11.6078 12.9864 12.7629C13.054 13.1706 12.7838 13.3065 12.446 13.5104C8.79831 15.5488 6.90689 20.3053 8.05525 24.2463C8.6632 26.3528 10.1493 26.7605 11.703 25.1976C12.5811 24.3143 13.054 23.1592 13.5268 22.004C14.2023 20.2373 14.5401 18.3348 14.9454 16.636C15.3507 16.5001 15.4858 16.636 15.6209 16.8399C15.9586 17.3835 16.3639 17.8591 16.6341 18.4027C18.2554 21.8681 19.2011 25.5374 18.8633 29.4105C18.7958 29.9541 18.7282 30.4977 18.7282 31.0413C18.7282 31.5849 19.066 31.9926 19.6064 31.9926C20.1468 32.0605 20.4845 31.6528 20.6196 31.1772C20.7547 30.7015 20.8223 30.2259 20.8898 29.7502C21.3627 25.1976 20.2819 20.9848 18.2554 17.0437C17.7825 16.0924 17.107 15.1411 16.2288 14.4616C15.4182 13.918 15.148 13.2386 15.0129 12.2873C14.6752 9.50134 13.3917 7.46286 10.352 7.05517C9.67646 6.91927 9.54136 6.64747 9.40626 5.96798C8.79831 2.16282 5.28569 -0.419258 1.36776 0.0563869C0.692259 0.124336 0.151856 0.396133 0.219407 1.21153C0.219407 1.89102 0.692259 2.09487 1.30021 2.16282C2.51612 2.16282 3.66448 2.36666 4.74528 2.77436C5.89364 3.18206 6.77179 3.86155 7.1771 5.08464C7.7175 6.51157 7.4473 7.05517 6.09629 7.73466ZM2.17837 18.1989C2.65122 14.8693 3.46182 11.7437 6.70424 9.90904C5.89364 13.0347 5.01548 16.1604 2.17837 18.1989ZM10.352 23.7028C9.00096 21.2566 10.4195 17.0437 12.9864 15.6168C12.5136 18.5386 11.9732 21.2566 10.352 23.7028Z" fill="white"/>
</svg>
